<svg width="22" height="23" viewBox="0 0 22 23" fill="none" xmlns="http://www.w3.org/2000/svg">
<path d="M2.20711 11.2929C1.81658 10.9024 1.18342 10.9024 0.792893 11.2929C0.402369 11.6834 0.402369 12.3166 0.792893 12.7071L2.20711 11.2929ZM11 21.5L10.2929 22.2071C10.6834 22.5976 11.3166 22.5976 11.7071 22.2071L11 21.5ZM21.2071 12.7071C21.5976 12.3166 21.5976 11.6834 21.2071 11.2929C20.8166 10.9024 20.1834 10.9024 19.7929 11.2929L21.2071 12.7071ZM12 1.5C12 0.947715 11.5523 0.5 11 0.5C10.4477 0.5 10 0.947715 10 1.5H12ZM0.792893 12.7071L10.2929 22.2071L11.7071 20.7929L2.20711 11.2929L0.792893 12.7071ZM11.7071 22.2071L21.2071 12.7071L19.7929 11.2929L10.2929 20.7929L11.7071 22.2071ZM10 1.5V21.5H12V1.5H10Z" fill="white"/>
</svg>
