<svg width="565" height="130" viewBox="0 0 565 130" fill="none" xmlns="http://www.w3.org/2000/svg">
<path d="M92.0249 45.96L79.8359 13.422C79.3769 12.096 78.7139 11.79 77.2859 11.79H73.3589C71.9309 11.79 71.3189 12.096 70.8089 13.524L58.6199 45.96C58.1099 47.337 58.4669 48 59.9969 48H63.5159C66.0659 48 66.7289 47.592 67.2389 46.113L68.8709 41.319H81.4679L83.0489 46.113C83.5079 47.592 84.2729 48 86.8229 48H90.6479C92.1269 48 92.5349 47.337 92.0249 45.96ZM76.6739 26.682L79.3259 34.587H71.0639L73.7159 26.631C74.9399 23.01 74.8889 19.389 74.8889 19.389H75.3989C75.3989 19.389 75.5009 23.01 76.6739 26.682ZM116.499 21.48H112.521C111.093 21.48 110.634 21.939 110.634 23.367V31.017H102.729V23.367C102.729 21.939 102.27 21.48 100.893 21.48H96.9145C95.4865 21.48 95.0275 21.939 95.0275 23.367V46.113C95.0275 47.541 95.4865 48 96.9145 48H100.893C102.27 48 102.729 47.541 102.729 46.113V38.055H110.634V46.113C110.634 47.541 111.093 48 112.521 48H116.499C117.876 48 118.335 47.541 118.335 46.113V23.367C118.335 21.939 117.876 21.48 116.499 21.48ZM144.887 21.48H140.909C139.481 21.48 139.022 21.939 139.022 23.367V31.017H131.117V23.367C131.117 21.939 130.658 21.48 129.281 21.48H125.303C123.875 21.48 123.416 21.939 123.416 23.367V46.113C123.416 47.541 123.875 48 125.303 48H129.281C130.658 48 131.117 47.541 131.117 46.113V38.055H139.022V46.113C139.022 47.541 139.481 48 140.909 48H144.887C146.264 48 146.723 47.541 146.723 46.113V23.367C146.723 21.939 146.264 21.48 144.887 21.48ZM151.55 26.019C150.836 27.447 151.244 28.161 152.57 28.722L155.375 29.895C156.752 30.456 157.16 30.201 157.976 29.079C158.894 27.855 160.169 27.192 162.209 27.192C165.014 27.192 166.136 28.467 166.136 30.966V32.088C165.32 32.037 163.841 31.986 162.515 31.986C154.151 31.986 150.632 33.975 150.632 40.35C150.632 45.807 153.029 48.765 162.311 48.765C166.697 48.765 170.012 48.255 171.95 47.388C173.429 46.776 173.837 46.266 173.837 44.43V31.476C173.837 25.203 171.083 20.715 162.464 20.715C156.956 20.715 153.335 22.653 151.55 26.019ZM166.136 37.953V42.237C166.136 42.492 165.983 42.543 165.779 42.594C165.116 42.696 163.892 42.798 161.75 42.798C158.894 42.798 158.333 41.778 158.333 40.299C158.333 38.922 158.945 37.851 161.852 37.851C163.229 37.851 165.167 37.953 166.136 37.953ZM33.3637 60.79H29.2327C27.6517 60.79 27.1417 61.3 27.1417 62.881V74.866H14.8507V62.881C14.8507 61.3 14.2897 60.79 12.7597 60.79H8.62873C7.09873 60.79 6.53773 61.3 6.53773 62.881V94.909C6.53773 96.49 7.09873 97 8.62873 97H12.7597C14.2897 97 14.8507 96.49 14.8507 94.909V82.465H27.1417V94.909C27.1417 96.49 27.6517 97 29.2327 97H33.3637C34.8937 97 35.4037 96.49 35.4037 94.909V62.881C35.4037 61.3 34.8937 60.79 33.3637 60.79ZM40.0738 81.037V86.443C40.0738 92.869 43.4908 97.765 52.2628 97.765C58.0768 97.765 61.5958 96.031 63.4828 93.022C64.2988 91.645 64.0948 90.727 62.6668 90.013L60.1678 88.738C58.6888 87.973 58.0768 88.228 57.2098 89.401C56.2918 90.625 54.7618 91.441 52.3648 91.441C49.5088 91.441 47.7748 90.166 47.7748 87.412V86.137H61.9528C63.9418 86.137 64.6048 85.117 64.6048 83.587V80.476C64.6048 74.611 60.7798 69.715 52.3138 69.715C44.4088 69.715 40.0738 73.693 40.0738 81.037ZM56.8528 79.762V80.578H47.7748V79.762C47.7748 77.212 49.3558 75.835 52.3138 75.835C55.3228 75.835 56.8528 77.212 56.8528 79.762ZM89.3063 70.48H85.6853C83.7473 70.48 83.3393 70.684 82.4213 72.112L78.7493 77.977L74.9753 72.112C74.1593 70.735 73.5983 70.48 71.5073 70.48H68.0903C65.8973 70.48 65.7953 71.398 66.6623 72.724L73.9553 83.434L66.3563 94.756C65.2853 96.286 65.4383 97 67.7333 97H71.2013C73.1903 97 73.7513 96.847 74.6183 95.368L78.5963 88.687L82.7783 95.368C83.6963 96.847 84.1553 97 86.1953 97H89.7143C91.8563 97 92.1623 96.286 91.0913 94.756L83.4413 83.332L90.6323 72.724C91.6013 71.245 91.2953 70.48 89.3063 70.48ZM100.544 70.48H96.5659C95.1379 70.48 94.6789 70.939 94.6789 72.367V95.113C94.6789 96.541 95.1379 97 96.5659 97H100.544C101.411 97 101.921 96.745 102.431 95.98L108.704 86.188C109.979 84.097 110.795 82.618 111.662 80.323H111.917C111.152 83.026 110.54 85.015 110.54 88.585V95.113C110.54 96.541 111.05 97 112.427 97H116.405C117.782 97 118.292 96.541 118.292 95.113V72.367C118.292 70.939 117.782 70.48 116.405 70.48H112.427C111.56 70.48 110.999 70.786 110.54 71.5L104.165 81.445C103.094 83.23 102.278 84.556 101.309 87.208H101.105C101.972 84.097 102.38 81.955 102.38 78.946V72.367C102.38 70.939 101.921 70.48 100.544 70.48ZM144.887 70.48H140.909C139.481 70.48 139.022 70.939 139.022 72.367V80.017H131.117V72.367C131.117 70.939 130.658 70.48 129.281 70.48H125.303C123.875 70.48 123.416 70.939 123.416 72.367V95.113C123.416 96.541 123.875 97 125.303 97H129.281C130.658 97 131.117 96.541 131.117 95.113V87.055H139.022V95.113C139.022 96.541 139.481 97 140.909 97H144.887C146.264 97 146.723 96.541 146.723 95.113V72.367C146.723 70.939 146.264 70.48 144.887 70.48ZM151.55 75.019C150.836 76.447 151.244 77.161 152.57 77.722L155.375 78.895C156.752 79.456 157.16 79.201 157.976 78.079C158.894 76.855 160.169 76.192 162.209 76.192C165.014 76.192 166.136 77.467 166.136 79.966V81.088C165.32 81.037 163.841 80.986 162.515 80.986C154.151 80.986 150.632 82.975 150.632 89.35C150.632 94.807 153.029 97.765 162.311 97.765C166.697 97.765 170.012 97.255 171.95 96.388C173.429 95.776 173.837 95.266 173.837 93.43V80.476C173.837 74.203 171.083 69.715 162.464 69.715C156.956 69.715 153.335 71.653 151.55 75.019ZM166.136 86.953V91.237C166.136 91.492 165.983 91.543 165.779 91.594C165.116 91.696 163.892 91.798 161.75 91.798C158.894 91.798 158.333 90.778 158.333 89.299C158.333 87.922 158.945 86.851 161.852 86.851C163.229 86.851 165.167 86.953 166.136 86.953Z" fill="white"/>
<path d="M254.015 47.335L244.635 23.605C244.46 23.15 244.215 23.045 243.725 23.045H242.675C242.185 23.045 241.975 23.15 241.8 23.64L232.42 47.335C232.245 47.755 232.35 48 232.875 48H233.82C234.66 48 234.905 47.86 235.045 47.37L237.67 40.72H248.625L251.25 47.37C251.39 47.86 251.67 48 252.51 48H253.525C254.085 48 254.19 47.755 254.015 47.335ZM243.725 27.875L247.925 38.62H238.405L242.64 27.875C243.025 26.685 243.06 25.565 243.06 25.46H243.235C243.235 25.565 243.305 26.685 243.725 27.875ZM258.062 30.5C256.942 30.955 256.662 31.305 256.662 32.46V55.07C256.662 55.56 256.837 55.7 257.292 55.7H258.412C258.867 55.7 259.042 55.56 259.042 55.07V47.3C259.917 47.65 261.877 48.49 264.292 48.49C269.227 48.49 271.467 45.97 271.467 41.525V36.485C271.467 32.005 269.192 29.485 264.187 29.485C261.352 29.485 259.392 29.975 258.062 30.5ZM269.122 36.555V41.455C269.122 44.64 267.582 46.355 264.117 46.355C261.807 46.355 259.847 45.515 259.042 45.13V33.265C259.042 32.705 259.112 32.565 259.707 32.32C260.687 31.97 262.087 31.655 263.907 31.655C267.407 31.655 269.122 33.335 269.122 36.555ZM286.101 22.38H284.876C277.666 22.38 275.391 25.46 275.391 32.985V41.665C275.391 45.9 278.051 48.49 283.126 48.49C288.271 48.49 290.896 45.9 290.896 41.665V37.185C290.896 32.95 288.271 30.36 283.581 30.36C279.941 30.36 278.261 32.11 277.596 33.125V32.39C277.596 26.58 279.171 24.585 284.911 24.585H286.171C287.711 24.585 288.831 24.445 289.636 24.025C290.056 23.78 290.196 23.64 290.021 23.15L289.741 22.345C289.531 21.82 289.321 21.68 288.831 21.925C288.306 22.205 287.256 22.38 286.101 22.38ZM288.516 37.185V41.665C288.516 44.605 286.696 46.355 283.126 46.355C279.591 46.355 277.771 44.605 277.771 41.665V35.96C277.981 34.735 279.556 32.495 283.126 32.495C286.696 32.495 288.516 34.21 288.516 37.185ZM296.626 30.01H295.506C295.051 30.01 294.876 30.15 294.876 30.64V47.37C294.876 47.86 295.051 48 295.506 48H296.626C296.906 48 297.081 47.93 297.256 47.65L305.936 36.17C306.671 35.12 307.266 34.315 307.861 33.195H307.966C307.756 34.49 307.546 35.75 307.546 37.465V47.37C307.546 47.86 307.721 48 308.176 48H309.296C309.751 48 309.926 47.86 309.926 47.37V30.64C309.926 30.15 309.751 30.01 309.296 30.01H308.176C307.896 30.01 307.756 30.08 307.581 30.325L298.761 41.98C298.096 42.855 297.571 43.625 296.941 44.85H296.871C297.116 43.485 297.256 42.295 297.256 40.755V30.64C297.256 30.15 297.081 30.01 296.626 30.01ZM326.815 30.01H313.34C312.885 30.01 312.71 30.15 312.71 30.64V31.55C312.71 32.005 312.885 32.18 313.34 32.18H318.94V47.37C318.94 47.86 319.115 48 319.57 48H320.655C321.11 48 321.285 47.86 321.285 47.37V32.18H326.815C327.305 32.18 327.445 32.005 327.445 31.55V30.64C327.445 30.15 327.305 30.01 326.815 30.01ZM331.582 30.5C330.462 30.955 330.182 31.305 330.182 32.46V55.07C330.182 55.56 330.357 55.7 330.812 55.7H331.932C332.387 55.7 332.562 55.56 332.562 55.07V47.3C333.437 47.65 335.397 48.49 337.812 48.49C342.747 48.49 344.987 45.97 344.987 41.525V36.485C344.987 32.005 342.712 29.485 337.707 29.485C334.872 29.485 332.912 29.975 331.582 30.5ZM342.642 36.555V41.455C342.642 44.64 341.102 46.355 337.637 46.355C335.327 46.355 333.367 45.515 332.562 45.13V33.265C332.562 32.705 332.632 32.565 333.227 32.32C334.207 31.97 335.607 31.655 337.427 31.655C340.927 31.655 342.642 33.335 342.642 36.555ZM348.631 33.16C348.386 33.65 348.526 33.895 348.981 34.07L349.821 34.42C350.276 34.63 350.416 34.525 350.696 34.14C351.606 32.53 353.146 31.585 355.596 31.585C359.411 31.585 360.321 33.65 360.321 36.38V37.99C359.691 37.92 357.801 37.64 355.736 37.64C350.241 37.64 348.036 39.04 348.036 43.065C348.036 46.565 349.506 48.49 355.596 48.49C358.256 48.49 360.111 48.14 361.406 47.58C362.386 47.16 362.666 46.81 362.666 45.585V36.415C362.666 32.635 361.231 29.485 355.666 29.485C352.131 29.485 349.856 30.85 348.631 33.16ZM360.321 39.915V44.955C360.321 45.62 360.181 45.76 359.656 45.97C358.676 46.32 357.381 46.53 355.421 46.53C351.326 46.53 350.451 45.235 350.451 43.03C350.451 40.65 351.711 39.6 355.491 39.6C357.521 39.6 359.621 39.845 360.321 39.915ZM378.196 30.01H377.181C376.656 30.01 376.516 30.15 376.516 30.64V37.675H374.101C373.856 37.675 373.646 37.675 373.436 37.71L368.466 30.5C368.151 30.045 367.941 30.01 367.206 30.01H366.226C365.631 30.01 365.491 30.22 365.841 30.745L371.231 38.34C370.111 38.76 369.376 39.635 368.711 40.965L365.561 47.265C365.281 47.79 365.351 48 365.946 48H366.996C367.696 48 367.836 47.93 368.046 47.44L370.706 41.98C371.406 40.51 372.351 39.845 374.136 39.845H376.516V47.335C376.516 47.86 376.656 48 377.181 48H378.196C378.721 48 378.861 47.86 378.861 47.335V39.845H381.241C383.026 39.845 383.971 40.51 384.671 41.98L387.331 47.44C387.541 47.93 387.681 48 388.381 48H389.431C390.026 48 390.096 47.79 389.816 47.265L386.666 40.965C386.001 39.635 385.266 38.76 384.146 38.34L389.536 30.745C389.886 30.255 389.781 30.01 389.151 30.01H388.171C387.436 30.01 387.226 30.045 386.911 30.5L381.941 37.71C381.731 37.675 381.521 37.675 381.276 37.675H378.861V30.64C378.861 30.15 378.721 30.01 378.196 30.01ZM407.285 30.01H406.165C405.71 30.01 405.535 30.15 405.535 30.64V37.675H395.42V30.64C395.42 30.15 395.245 30.01 394.79 30.01H393.67C393.215 30.01 393.04 30.15 393.04 30.64V47.37C393.04 47.86 393.215 48 393.67 48H394.79C395.245 48 395.42 47.86 395.42 47.37V39.845H405.535V47.37C405.535 47.86 405.71 48 406.165 48H407.285C407.74 48 407.915 47.86 407.915 47.37V30.64C407.915 30.15 407.74 30.01 407.285 30.01ZM420.958 35.68H414.903V30.64C414.903 30.15 414.728 30.01 414.273 30.01H413.153C412.698 30.01 412.523 30.15 412.523 30.64V47.37C412.523 47.86 412.698 48 413.153 48H420.958C424.878 48 427.258 45.76 427.258 41.805C427.258 37.92 424.878 35.68 420.958 35.68ZM431.808 30.01H430.688C430.233 30.01 430.058 30.15 430.058 30.64V47.37C430.058 47.86 430.233 48 430.688 48H431.808C432.263 48 432.438 47.86 432.438 47.37V30.64C432.438 30.15 432.263 30.01 431.808 30.01ZM420.678 45.865H414.903V37.815H420.678C423.268 37.815 424.808 39.25 424.808 41.805C424.808 44.36 423.268 45.865 420.678 45.865ZM450.014 23.57C450.119 23.255 450.049 23.115 449.734 22.975L448.789 22.66C448.474 22.555 448.369 22.625 448.229 22.905C447.704 24.76 446.549 25.635 444.694 25.635C442.839 25.635 441.684 24.76 441.194 22.905C441.054 22.625 440.914 22.555 440.529 22.66L439.689 22.975C439.374 23.115 439.304 23.255 439.409 23.57C440.144 26.125 441.964 27.385 444.694 27.385C447.459 27.385 449.244 26.125 450.014 23.57ZM438.814 30.01H437.694C437.239 30.01 437.064 30.15 437.064 30.64V47.37C437.064 47.86 437.239 48 437.694 48H438.814C439.094 48 439.269 47.93 439.444 47.65L448.124 36.17C448.859 35.12 449.454 34.315 450.049 33.195H450.154C449.944 34.49 449.734 35.75 449.734 37.465V47.37C449.734 47.86 449.909 48 450.364 48H451.484C451.939 48 452.114 47.86 452.114 47.37V30.64C452.114 30.15 451.939 30.01 451.484 30.01H450.364C450.084 30.01 449.944 30.08 449.769 30.325L440.949 41.98C440.284 42.855 439.759 43.625 439.129 44.85H439.059C439.304 43.485 439.444 42.295 439.444 40.755V30.64C439.444 30.15 439.269 30.01 438.814 30.01ZM248.345 80.01H247.225C246.77 80.01 246.595 80.15 246.595 80.64V94.955C245.51 95.305 243.795 95.9 241.415 95.9C238.02 95.9 236.515 94.255 236.515 91.105V80.64C236.515 80.15 236.375 80.01 235.885 80.01H234.8C234.31 80.01 234.17 80.15 234.17 80.64V91.21C234.17 95.515 236.305 98.035 241.1 98.035C243.725 98.035 245.405 97.475 246.595 97.125V99.19C246.595 102.515 245.055 104.51 241.485 104.51C238.825 104.51 237.495 103.39 236.585 101.71C236.305 101.29 236.095 101.185 235.57 101.465L234.8 101.85C234.345 102.095 234.275 102.445 234.555 102.9C235.745 105.105 237.775 106.645 241.52 106.645C246.84 106.645 248.975 103.635 248.975 99.085V80.64C248.975 80.15 248.8 80.01 248.345 80.01ZM267.657 80.01H254.217C253.762 80.01 253.587 80.15 253.587 80.64V97.37C253.587 97.86 253.762 98 254.217 98H255.337C255.792 98 255.967 97.86 255.967 97.37V82.18H265.942V97.37C265.942 97.86 266.082 98 266.572 98H267.657C268.147 98 268.287 97.86 268.287 97.37V80.64C268.287 80.15 268.147 80.01 267.657 80.01ZM274.229 80.5C273.109 80.955 272.829 81.305 272.829 82.46V105.07C272.829 105.56 273.004 105.7 273.459 105.7H274.579C275.034 105.7 275.209 105.56 275.209 105.07V97.3C276.084 97.65 278.044 98.49 280.459 98.49C285.394 98.49 287.634 95.97 287.634 91.525V86.485C287.634 82.005 285.359 79.485 280.354 79.485C277.519 79.485 275.559 79.975 274.229 80.5ZM285.289 86.555V91.455C285.289 94.64 283.749 96.355 280.284 96.355C277.974 96.355 276.014 95.515 275.209 95.13V83.265C275.209 82.705 275.279 82.565 275.874 82.32C276.854 81.97 278.254 81.655 280.074 81.655C283.574 81.655 285.289 83.335 285.289 86.555ZM291.278 83.16C291.033 83.65 291.173 83.895 291.628 84.07L292.468 84.42C292.923 84.63 293.063 84.525 293.343 84.14C294.253 82.53 295.793 81.585 298.243 81.585C302.058 81.585 302.968 83.65 302.968 86.38V87.99C302.338 87.92 300.448 87.64 298.383 87.64C292.888 87.64 290.683 89.04 290.683 93.065C290.683 96.565 292.153 98.49 298.243 98.49C300.903 98.49 302.758 98.14 304.053 97.58C305.033 97.16 305.313 96.81 305.313 95.585V86.415C305.313 82.635 303.878 79.485 298.313 79.485C294.778 79.485 292.503 80.85 291.278 83.16ZM302.968 89.915V94.955C302.968 95.62 302.828 95.76 302.303 95.97C301.323 96.32 300.028 96.53 298.068 96.53C293.973 96.53 293.098 95.235 293.098 93.03C293.098 90.65 294.358 89.6 298.138 89.6C300.168 89.6 302.268 89.845 302.968 89.915ZM323.853 84.7C323.853 81.76 322.033 80.01 318.848 80.01H310.273C309.783 80.01 309.608 80.185 309.608 80.64V97.335C309.608 97.825 309.783 98 310.273 98H319.303C322.523 98 324.483 96.11 324.483 93.03C324.483 90.895 323.608 89.39 321.718 88.585C323.223 87.815 323.853 86.415 323.853 84.7ZM318.603 87.745H311.988V82.005H318.463C320.423 82.005 321.473 83.02 321.473 84.875C321.473 86.695 320.318 87.745 318.603 87.745ZM318.883 95.97H311.988V89.705H318.813C320.878 89.705 322.033 90.86 322.033 92.82C322.033 94.815 320.878 95.97 318.883 95.97ZM341.747 80.01H330.442C329.952 80.01 329.812 80.15 329.812 80.64V86.38C329.812 94.57 327.887 95.55 326.277 96.355C325.927 96.53 325.857 96.705 326.032 97.055L326.557 98.14C326.732 98.49 326.977 98.595 327.327 98.455C329.742 97.335 332.087 95.48 332.087 86.52V82.215H339.997V97.37C339.997 97.86 340.172 98 340.627 98H341.747C342.202 98 342.377 97.86 342.377 97.37V80.64C342.377 80.15 342.202 80.01 341.747 80.01ZM360.16 80.01H352.075C348.47 80.01 346.195 82.18 346.195 85.785C346.195 88.725 347.77 90.685 350.325 91.21L346.23 97.23C345.88 97.755 345.915 98 346.685 98H347.7C348.365 98 348.575 97.965 348.855 97.44L352.74 91.525H358.445V97.37C358.445 97.86 358.585 98 359.075 98H360.16C360.65 98 360.79 97.86 360.79 97.37V80.64C360.79 80.185 360.615 80.01 360.16 80.01ZM352.355 82.11H358.445V89.39H352.355C350.045 89.39 348.645 87.99 348.645 85.785C348.645 83.545 350.045 82.11 352.355 82.11ZM372.388 85.855V87.78H367.803V80.64C367.803 80.15 367.628 80.01 367.173 80.01H366.053C365.598 80.01 365.423 80.15 365.423 80.64V97.37C365.423 97.86 365.598 98 366.053 98H367.173C367.628 98 367.803 97.86 367.803 97.37V89.95H372.388V92.155C372.388 96.11 375.223 98.49 379.878 98.49C384.638 98.49 387.438 96.11 387.438 92.155V85.855C387.438 81.9 384.638 79.485 379.878 79.485C375.223 79.485 372.388 81.9 372.388 85.855ZM385.058 85.855V92.155C385.058 94.78 383.098 96.355 379.878 96.355C376.763 96.355 374.768 94.78 374.768 92.155V85.855C374.768 83.195 376.763 81.62 379.878 81.62C383.098 81.62 385.058 83.195 385.058 85.855ZM415.512 95.83H413.587V80.64C413.587 80.15 413.447 80.01 412.957 80.01H411.872C411.417 80.01 411.242 80.15 411.242 80.64V95.83H403.752V80.64C403.752 80.15 403.577 80.01 403.122 80.01H402.037C401.547 80.01 401.407 80.15 401.407 80.64V95.83H393.917V80.64C393.917 80.15 393.742 80.01 393.287 80.01H392.167C391.712 80.01 391.537 80.15 391.537 80.64V97.37C391.537 97.86 391.712 98 392.167 98H413.832V102.235C413.832 102.725 414.007 102.865 414.497 102.865H415.512C415.967 102.865 416.142 102.725 416.142 102.235V96.46C416.142 95.97 415.967 95.83 415.512 95.83ZM420.87 80.01H419.75C419.295 80.01 419.12 80.15 419.12 80.64V97.37C419.12 97.86 419.295 98 419.75 98H420.87C421.15 98 421.325 97.93 421.5 97.65L430.18 86.17C430.915 85.12 431.51 84.315 432.105 83.195H432.21C432 84.49 431.79 85.75 431.79 87.465V97.37C431.79 97.86 431.965 98 432.42 98H433.54C433.995 98 434.17 97.86 434.17 97.37V80.64C434.17 80.15 433.995 80.01 433.54 80.01H432.42C432.14 80.01 432 80.08 431.825 80.325L423.005 91.98C422.34 92.855 421.815 93.625 421.185 94.85H421.115C421.36 93.485 421.5 92.295 421.5 90.755V80.64C421.5 80.15 421.325 80.01 420.87 80.01ZM451.723 73.57C451.828 73.255 451.758 73.115 451.443 72.975L450.498 72.66C450.183 72.555 450.078 72.625 449.938 72.905C449.413 74.76 448.258 75.635 446.403 75.635C444.548 75.635 443.393 74.76 442.903 72.905C442.763 72.625 442.623 72.555 442.238 72.66L441.398 72.975C441.083 73.115 441.013 73.255 441.118 73.57C441.853 76.125 443.673 77.385 446.403 77.385C449.168 77.385 450.953 76.125 451.723 73.57ZM440.523 80.01H439.403C438.948 80.01 438.773 80.15 438.773 80.64V97.37C438.773 97.86 438.948 98 439.403 98H440.523C440.803 98 440.978 97.93 441.153 97.65L449.833 86.17C450.568 85.12 451.163 84.315 451.758 83.195H451.863C451.653 84.49 451.443 85.75 451.443 87.465V97.37C451.443 97.86 451.618 98 452.073 98H453.193C453.648 98 453.823 97.86 453.823 97.37V80.64C453.823 80.15 453.648 80.01 453.193 80.01H452.073C451.793 80.01 451.653 80.08 451.478 80.325L442.658 91.98C441.993 92.855 441.468 93.625 440.838 94.85H440.768C441.013 93.485 441.153 92.295 441.153 90.755V80.64C441.153 80.15 440.978 80.01 440.523 80.01Z" fill="white"/>
<path d="M204 11V98.5" stroke="white" stroke-width="2"/>
</svg>
