<svg width="34" height="22" viewBox="0 0 34 22" fill="none" xmlns="http://www.w3.org/2000/svg">
<path d="M1 10.5C0.723858 10.5 0.5 10.7239 0.5 11C0.5 11.2761 0.723858 11.5 1 11.5V10.5ZM31.7667 11.5C32.0428 11.5 32.2667 11.2761 32.2667 11C32.2667 10.7239 32.0428 10.5 31.7667 10.5V11.5ZM23.4893 0.648827C23.2953 0.452259 22.9787 0.450135 22.7822 0.644082C22.5856 0.838029 22.5835 1.1546 22.7774 1.35117L23.4893 0.648827ZM33 11L33.3559 11.3512C33.548 11.1565 33.548 10.8435 33.3559 10.6488L33 11ZM22.7774 20.6488C22.5835 20.8454 22.5856 21.162 22.7822 21.3559C22.9787 21.5499 23.2953 21.5477 23.4893 21.3512L22.7774 20.6488ZM1 11.5H31.7667V10.5H1V11.5ZM22.7774 1.35117L32.6441 11.3512L33.3559 10.6488L23.4893 0.648827L22.7774 1.35117ZM32.6441 10.6488L22.7774 20.6488L23.4893 21.3512L33.3559 11.3512L32.6441 10.6488Z" fill="white"/>
</svg>
