<svg width="34" height="22" viewBox="0 0 34 22" fill="none" xmlns="http://www.w3.org/2000/svg">
<path d="M33 11.5C33.2761 11.5 33.5 11.2761 33.5 11C33.5 10.7239 33.2761 10.5 33 10.5L33 11.5ZM2.23333 10.5C1.95719 10.5 1.73333 10.7239 1.73333 11C1.73333 11.2761 1.95719 11.5 2.23333 11.5L2.23333 10.5ZM10.5107 21.3512C10.7047 21.5477 11.0213 21.5499 11.2178 21.3559C11.4144 21.162 11.4165 20.8454 11.2226 20.6488L10.5107 21.3512ZM1 11L0.644082 10.6488C0.451974 10.8435 0.451974 11.1565 0.644082 11.3512L1 11ZM11.2226 1.35117C11.4165 1.1546 11.4144 0.838028 11.2178 0.644079C11.0213 0.450132 10.7047 0.452257 10.5107 0.648825L11.2226 1.35117ZM33 10.5L2.23333 10.5L2.23333 11.5L33 11.5L33 10.5ZM11.2226 20.6488L1.35592 10.6488L0.644082 11.3512L10.5107 21.3512L11.2226 20.6488ZM1.35592 11.3512L11.2226 1.35117L10.5107 0.648825L0.644082 10.6488L1.35592 11.3512Z" fill="white"/>
</svg>
