<svg width="23" height="24" viewBox="0 0 23 24" fill="none" xmlns="http://www.w3.org/2000/svg">
<path opacity="0.2" d="M19 23.9004C18.9 23.9004 18.8 23.9004 18.7 23.9004C15.5 23.5004 12.3 22.4004 9.59998 20.7004C7.09998 19.1004 4.89998 16.9004 3.29998 14.4004C1.49998 11.7004 0.399976 8.50039 0.0999756 5.30039C0.0999756 4.50039 0.299976 3.70039 0.799976 3.10039C1.29998 2.50039 1.99998 2.10039 2.79998 2.00039C2.89998 2.00039 2.99998 2.00039 3.09998 2.00039H6.09998C7.59998 2.00039 8.89998 3.10039 9.09998 4.60039C9.19998 5.50039 9.39997 6.40039 9.69998 7.20039C10.1 8.30039 9.79998 9.50039 8.99998 10.4004L8.29998 11.1004C9.49998 12.9004 11 14.5004 12.9 15.7004L13.6 15.0004C14.4 14.2004 15.7 13.9004 16.8 14.3004C17.6 14.6004 18.5 14.8004 19.4 14.9004C20.9 15.1004 22 16.4004 22 17.9004V20.9004C22 21.7004 21.7 22.5004 21.1 23.0004C20.5 23.5004 19.8 23.9004 19 23.9004ZM6.09998 4.00039H3.09998C2.79998 4.00039 2.49998 4.20039 2.29998 4.40039C2.19998 4.60039 2.09998 4.80039 2.09998 5.10039C2.39998 8.00039 3.39998 10.8004 4.99998 13.3004C6.49998 15.6004 8.39997 17.6004 10.7 19.0004C13.2 20.6004 16 21.6004 18.9 21.9004C19.3 21.9004 19.5 21.8004 19.7 21.6004C19.9 21.4004 20 21.2004 20 20.9004V17.9004C20 17.4004 19.6 17.0004 19.1 16.9004C18.1 16.8004 17.1 16.5004 16.1 16.1004C15.7 16.0004 15.3 16.0004 15 16.3004L13.7 17.6004C13.4 17.9004 12.9 18.0004 12.5 17.8004C9.79998 16.3004 7.59998 14.1004 6.09998 11.4004C5.99998 11.0004 6.09998 10.5004 6.39998 10.2004L7.69998 8.90039C7.89998 8.70039 7.99998 8.20039 7.89998 7.90039C7.49998 6.90039 7.29998 5.90039 7.09998 4.90039C7.09998 4.40039 6.59998 4.00039 6.09998 4.00039ZM18 11.0004C17.5 11.0004 17.1 10.7004 17 10.2004C16.7 8.60039 15.4 7.40039 13.8 7.00039C13.3 6.90039 12.9 6.40039 13 5.80039C13.1 5.30039 13.6 4.90039 14.2 5.00039C16.6 5.50039 18.5 7.30039 18.9 9.70039C19 10.2004 18.7 10.8004 18.1 10.9004C18.1 10.9004 18.1 11.0004 18 11.0004ZM22 10.9004C21.5 10.9004 21.1 10.5004 21 10.0004C20.6 6.30039 17.7 3.40039 13.9 2.90039C13.4 2.80039 13 2.30039 13 1.80039C13 1.30039 13.6 0.900391 14.1 0.900391C18.8 1.40039 22.4 5.00039 22.9 9.70039C23 10.2004 22.6 10.7004 22 10.8004C22.1 10.9004 22 10.9004 22 10.9004Z" fill="black"/>
</svg>
