<svg width="22" height="21" viewBox="0 0 22 21" fill="none" xmlns="http://www.w3.org/2000/svg">
<path d="M10.7929 19.2929C10.4024 19.6834 10.4024 20.3166 10.7929 20.7071C11.1834 21.0976 11.8166 21.0976 12.2071 20.7071L10.7929 19.2929ZM21 10.5L21.7071 11.2071C22.0976 10.8166 22.0976 10.1834 21.7071 9.79289L21 10.5ZM12.2071 0.292893C11.8166 -0.0976313 11.1834 -0.0976313 10.7929 0.292893C10.4024 0.683418 10.4024 1.31658 10.7929 1.70711L12.2071 0.292893ZM1 9.5C0.447715 9.5 1.19872e-07 9.94771 1.13286e-07 10.5C1.067e-07 11.0523 0.447715 11.5 1 11.5L1 9.5ZM12.2071 20.7071L21.7071 11.2071L20.2929 9.79289L10.7929 19.2929L12.2071 20.7071ZM21.7071 9.79289L12.2071 0.292893L10.7929 1.70711L20.2929 11.2071L21.7071 9.79289ZM1 11.5L21 11.5L21 9.5L1 9.5L1 11.5Z" fill="#1E2F31"/>
</svg>
