<svg width="14" height="17" viewBox="0 0 14 17" fill="none" xmlns="http://www.w3.org/2000/svg">
<path fill-rule="evenodd" clip-rule="evenodd" d="M7 1.41668C5.51479 1.41668 4.09041 2.0137 3.0402 3.07642C1.99 4.13913 1.4 5.58048 1.4 7.08339C1.4 9.27786 2.81102 11.4073 4.35817 13.0598C5.11743 13.8708 5.87907 14.5347 6.45167 14.9961C6.66478 15.1678 6.85092 15.3109 7 15.4224C7.14908 15.3109 7.33522 15.1678 7.54833 14.9961C8.12093 14.5347 8.88257 13.8708 9.64183 13.0598C11.189 11.4073 12.6 9.27786 12.6 7.08339C12.6 5.58048 12.01 4.13913 10.9598 3.07642C9.90959 2.0137 8.48521 1.41668 7 1.41668ZM7 16.2918C6.61171 16.8812 6.61133 16.8809 6.61133 16.8809L6.60933 16.8796L6.60467 16.8764L6.58862 16.8654C6.57499 16.856 6.55555 16.8426 6.53069 16.8252C6.48097 16.7903 6.40952 16.7395 6.31945 16.6737C6.13938 16.5421 5.88445 16.35 5.57958 16.1044C4.97093 15.6139 4.15757 14.9054 3.34183 14.0341C1.73898 12.3221 0 9.84728 0 7.08339C4.17233e-08 5.20476 0.737498 3.40307 2.05025 2.07468C3.36301 0.746283 5.14348 0 7 0C8.85651 0 10.637 0.746283 11.9497 2.07468C13.2625 3.40307 14 5.20476 14 7.08339C14 9.84728 12.261 12.3221 10.6582 14.0341C9.84243 14.9054 9.02907 15.6139 8.42042 16.1044C8.11555 16.35 7.86062 16.5421 7.68055 16.6737C7.59048 16.7395 7.51903 16.7903 7.46931 16.8252C7.44445 16.8426 7.42501 16.856 7.41138 16.8654L7.39533 16.8764L7.39067 16.8796L7.38919 16.8806C7.38919 16.8806 7.38829 16.8812 7 16.2918ZM7 16.2918L7.38829 16.8812C7.15316 17.0398 6.84646 17.0395 6.61133 16.8809L7 16.2918Z" fill="#1E2F31"/>
<path fill-rule="evenodd" clip-rule="evenodd" d="M7 5.66671C6.2268 5.66671 5.6 6.30098 5.6 7.08339C5.6 7.8658 6.2268 8.50006 7 8.50006C7.7732 8.50006 8.4 7.8658 8.4 7.08339C8.4 6.30098 7.7732 5.66671 7 5.66671ZM4.2 7.08339C4.2 5.51857 5.4536 4.25003 7 4.25003C8.5464 4.25003 9.8 5.51857 9.8 7.08339C9.8 8.6482 8.5464 9.91674 7 9.91674C5.4536 9.91674 4.2 8.6482 4.2 7.08339Z" fill="#1E2F31"/>
</svg>
