<svg width="22" height="18" viewBox="0 0 22 18" fill="none" xmlns="http://www.w3.org/2000/svg">
<g opacity="0.2">
<path fill-rule="evenodd" clip-rule="evenodd" d="M2.99996 2C2.45225 2 1.99996 2.45228 1.99996 3V15C1.99996 15.5477 2.45225 16 2.99996 16H19C19.5477 16 20 15.5477 20 15V3C20 2.45228 19.5477 2 19 2H2.99996ZM-3.61748e-05 3C-3.61748e-05 1.34772 1.34768 0 2.99996 0H19C20.6522 0 22 1.34772 22 3V15C22 16.6523 20.6522 18 19 18H2.99996C1.34768 18 -3.61748e-05 16.6523 -3.61748e-05 15V3Z" fill="black"/>
<path fill-rule="evenodd" clip-rule="evenodd" d="M0.180732 2.42654C0.497446 1.97409 1.12098 1.86405 1.57343 2.18077L11 8.77934L20.4265 2.18077C20.879 1.86405 21.5025 1.97409 21.8192 2.42654C22.1359 2.87899 22.0259 3.50252 21.5734 3.81923L11.5734 10.8192C11.2291 11.0603 10.7708 11.0603 10.4265 10.8192L0.426501 3.81923C-0.0259479 3.50252 -0.135983 2.87899 0.180732 2.42654Z" fill="black"/>
</g>
</svg>
