<svg width="22" height="23" viewBox="0 0 22 23" fill="none" xmlns="http://www.w3.org/2000/svg">
<path d="M19.7929 11.7071C20.1834 12.0976 20.8166 12.0976 21.2071 11.7071C21.5976 11.3166 21.5976 10.6834 21.2071 10.2929L19.7929 11.7071ZM11 1.5L11.7071 0.792893C11.3166 0.402369 10.6834 0.402369 10.2929 0.792893L11 1.5ZM0.792891 10.2929C0.402368 10.6834 0.402368 11.3166 0.792892 11.7071C1.18342 12.0976 1.81658 12.0976 2.20711 11.7071L0.792891 10.2929ZM10 21.5C10 22.0523 10.4477 22.5 11 22.5C11.5523 22.5 12 22.0523 12 21.5L10 21.5ZM21.2071 10.2929L11.7071 0.792893L10.2929 2.20711L19.7929 11.7071L21.2071 10.2929ZM10.2929 0.792893L0.792891 10.2929L2.20711 11.7071L11.7071 2.20711L10.2929 0.792893ZM12 21.5L12 1.5L10 1.5L10 21.5L12 21.5Z" fill="#1E2F31"/>
</svg>
