<svg width="16" height="16" viewBox="0 0 16 16" fill="none" xmlns="http://www.w3.org/2000/svg">
<g opacity="0.2">
<path fill-rule="evenodd" clip-rule="evenodd" d="M7.79167 1.41667C4.27085 1.41667 1.41667 4.27085 1.41667 7.79167C1.41667 11.3125 4.27085 14.1667 7.79167 14.1667C11.3125 14.1667 14.1667 11.3125 14.1667 7.79167C14.1667 4.27085 11.3125 1.41667 7.79167 1.41667ZM0 7.79167C0 3.48845 3.48845 0 7.79167 0C12.0949 0 15.5833 3.48845 15.5833 7.79167C15.5833 12.0949 12.0949 15.5833 7.79167 15.5833C3.48845 15.5833 0 12.0949 0 7.79167Z" fill="black"/>
<path fill-rule="evenodd" clip-rule="evenodd" d="M7.79167 2.83333C8.18287 2.83333 8.5 3.15046 8.5 3.54167V7.35389L10.9418 8.57478C11.2917 8.74973 11.4335 9.17521 11.2586 9.52511C11.0836 9.87501 10.6581 10.0168 10.3082 9.84189L7.47489 8.42522C7.23492 8.30523 7.08333 8.05996 7.08333 7.79167V3.54167C7.08333 3.15046 7.40047 2.83333 7.79167 2.83333Z" fill="black"/>
</g>
</svg>
