<svg width="16" height="14" viewBox="0 0 16 14" fill="none" xmlns="http://www.w3.org/2000/svg">
<path fill-rule="evenodd" clip-rule="evenodd" d="M2.18186 1.55556C1.78353 1.55556 1.4546 1.90733 1.4546 2.33333V11.6667C1.4546 12.0927 1.78353 12.4444 2.18186 12.4444H13.8181C14.2165 12.4444 14.5454 12.0927 14.5454 11.6667V2.33333C14.5454 1.90733 14.2165 1.55556 13.8181 1.55556H2.18186ZM6.2469e-05 2.33333C6.2469e-05 1.04822 0.980211 0 2.18186 0H13.8181C15.0198 0 15.9999 1.04822 15.9999 2.33333V11.6667C15.9999 12.9518 15.0198 14 13.8181 14H2.18186C0.980211 14 6.2469e-05 12.9518 6.2469e-05 11.6667V2.33333Z" fill="#1E2F31"/>
<path fill-rule="evenodd" clip-rule="evenodd" d="M0.131529 1.88731C0.361865 1.5354 0.815338 1.44982 1.14439 1.69615L8 6.82838L14.8556 1.69615C15.1847 1.44982 15.6381 1.5354 15.8685 1.88731C16.0988 2.23921 16.0188 2.72418 15.6897 2.97051L8.41706 8.41496C8.16665 8.60242 7.83335 8.60242 7.58294 8.41496L0.310269 2.97051C-0.0187823 2.72418 -0.0988069 2.23921 0.131529 1.88731Z" fill="#1E2F31"/>
</svg>
